<svg width="711" height="519" viewBox="0 0 711 519" fill="none" xmlns="http://www.w3.org/2000/svg">
<g opacity="0.25" filter="url(#filter0_d)">
<g filter="url(#filter1_d)">
<path d="M423.635 349.196L522.8 452.664L560.269 416.753C569.02 408.366 569.315 394.473 560.928 385.723L560.264 385.029L476.949 298.099L423.635 349.196Z" fill="#A5A6F6"/>
</g>
<path d="M448.409 365.019L445.98 362.485L438.951 369.222L437.959 368.188L444.989 361.45L442.565 358.921L443.421 358.101L449.265 364.199L448.409 365.019ZM445.282 372.89L450.982 370.045L452.009 371.117L442.988 375.245C441.663 375.814 440.62 375.702 439.859 374.907L439.694 374.702L439.406 374.261L440.218 373.483L440.456 373.774C440.781 374.114 441.103 374.311 441.42 374.368C441.74 374.428 442.142 374.344 442.624 374.117L443.433 373.768L447.224 366.124L448.272 367.218L445.282 372.89ZM454.62 379.837C453.729 380.691 452.815 381.176 451.878 381.29C450.942 381.405 450.14 381.114 449.472 380.417C448.791 379.706 448.48 378.93 448.54 378.089L445.719 380.794L444.758 379.792L452.871 372.016L453.748 372.932L453.145 373.603C454.042 373.527 454.838 373.851 455.533 374.577C456.208 375.281 456.475 376.092 456.336 377.008C456.199 377.928 455.658 378.842 454.712 379.748L454.62 379.837ZM453.774 378.726C454.435 378.093 454.821 377.452 454.934 376.803C455.047 376.155 454.868 375.585 454.397 375.094C453.816 374.488 453.111 374.291 452.282 374.503L449.483 377.186C449.235 377.998 449.408 378.713 449.999 379.33C450.46 379.81 451.014 380.009 451.663 379.928C452.319 379.846 453.023 379.446 453.774 378.726ZM455.203 386.396C454.441 385.602 454.082 384.706 454.124 383.71C454.17 382.71 454.63 381.791 455.504 380.954L455.688 380.777C456.269 380.22 456.893 379.834 457.559 379.618C458.232 379.402 458.887 379.37 459.524 379.522C460.168 379.673 460.713 379.982 461.16 380.448C461.89 381.209 462.206 382.042 462.109 382.945C462.012 383.849 461.496 384.749 460.561 385.645L460.144 386.045L456.339 382.075C455.776 382.643 455.469 383.259 455.42 383.923C455.377 384.587 455.595 385.168 456.072 385.666C456.411 386.02 456.771 386.251 457.15 386.358C457.53 386.465 457.927 386.496 458.342 386.452L458.452 387.521C457.227 387.753 456.144 387.378 455.203 386.396ZM460.336 381.237C459.949 380.832 459.475 380.635 458.916 380.644C458.361 380.65 457.787 380.875 457.194 381.318L460.007 384.254L460.083 384.181C460.564 383.664 460.826 383.15 460.869 382.638C460.915 382.123 460.738 381.655 460.336 381.237ZM464.559 393.004L470.259 390.159L471.287 391.231L462.265 395.358C460.94 395.928 459.898 395.815 459.136 395.021L458.971 394.816L458.683 394.375L459.496 393.596L459.733 393.888C460.059 394.227 460.38 394.425 460.697 394.481C461.018 394.541 461.419 394.458 461.901 394.231L462.71 393.882L466.501 386.238L467.55 387.332L464.559 393.004ZM468.935 394.534C469.509 393.984 470.133 393.601 470.806 393.386C471.482 393.174 472.137 393.149 472.771 393.311C473.407 393.476 473.973 393.817 474.468 394.333C475.233 395.131 475.574 396.04 475.492 397.061C475.414 398.085 474.916 399.036 473.999 399.915L473.929 399.983C473.358 400.53 472.74 400.911 472.074 401.127C471.415 401.342 470.764 401.368 470.12 401.202C469.48 401.04 468.907 400.695 468.402 400.168C467.641 399.374 467.299 398.464 467.377 397.44C467.459 396.42 467.955 395.474 468.865 394.602L468.935 394.534ZM469.782 395.656C469.132 396.279 468.754 396.928 468.647 397.605C468.544 398.286 468.735 398.879 469.22 399.384C469.707 399.893 470.294 400.107 470.978 400.026C471.666 399.942 472.369 399.555 473.088 398.867C473.73 398.251 474.103 397.599 474.206 396.912C474.316 396.224 474.129 395.628 473.645 395.122C473.171 394.628 472.591 394.417 471.907 394.491C471.223 394.565 470.514 394.953 469.782 395.656ZM476.315 407.047C475.482 407.097 474.705 406.744 473.982 405.99C473.383 405.365 473.107 404.715 473.153 404.041C473.206 403.366 473.587 402.687 474.294 402.001L478.107 398.347L479.067 399.349L475.282 402.977C474.393 403.829 474.295 404.615 474.987 405.337C475.721 406.103 476.494 406.338 477.307 406.044L481.569 401.96L482.529 402.961L476.669 408.577L475.756 407.624L476.315 407.047ZM485.808 408.183C485.688 408.007 485.544 407.83 485.374 407.653C484.744 406.996 484.037 406.819 483.253 407.12L479.093 411.107L478.133 410.105L483.993 404.489L484.927 405.463L484.266 406.128C485.104 405.955 485.812 406.17 486.39 406.773C486.577 406.968 486.694 407.14 486.74 407.29L485.808 408.183ZM487.334 418.285C487.677 418.642 488.084 418.851 488.557 418.91C489.03 418.97 489.442 418.858 489.795 418.576L490.703 419.523C490.35 419.827 489.92 420.018 489.413 420.096C488.905 420.173 488.39 420.12 487.867 419.935C487.347 419.755 486.897 419.466 486.516 419.068C485.752 418.271 485.408 417.381 485.485 416.399C485.57 415.418 486.074 414.484 486.999 413.598L487.167 413.437C487.737 412.891 488.345 412.509 488.989 412.293C489.634 412.077 490.266 412.046 490.885 412.2C491.508 412.359 492.075 412.705 492.588 413.239C493.217 413.896 493.543 414.63 493.565 415.441C493.59 416.255 493.302 416.977 492.702 417.608L491.793 416.66C492.145 416.268 492.317 415.826 492.31 415.334C492.309 414.843 492.128 414.407 491.764 414.028C491.276 413.519 490.713 413.3 490.075 413.372C489.444 413.443 488.782 413.811 488.089 414.475L487.899 414.657C487.224 415.304 486.837 415.942 486.739 416.569C486.641 417.197 486.839 417.768 487.334 418.285ZM492.666 419.295C493.24 418.744 493.864 418.361 494.537 418.146C495.213 417.934 495.868 417.909 496.501 418.071C497.138 418.236 497.704 418.577 498.198 419.094C498.963 419.892 499.305 420.801 499.223 421.821C499.144 422.845 498.647 423.797 497.73 424.676L497.659 424.743C497.089 425.29 496.471 425.671 495.805 425.887C495.146 426.103 494.494 426.128 493.851 425.962C493.21 425.8 492.638 425.455 492.132 424.928C491.371 424.134 491.03 423.225 491.108 422.201C491.19 421.18 491.686 420.234 492.595 419.362L492.666 419.295ZM493.512 420.416C492.862 421.039 492.484 421.689 492.378 422.366C492.275 423.046 492.466 423.639 492.95 424.144C493.438 424.653 494.024 424.868 494.709 424.787C495.397 424.702 496.1 424.316 496.818 423.627C497.461 423.011 497.834 422.359 497.937 421.672C498.047 420.984 497.86 420.388 497.375 419.883C496.901 419.388 496.322 419.178 495.638 419.252C494.954 419.325 494.245 419.714 493.512 420.416ZM502.761 424.072L502.138 424.721C503.055 424.667 503.863 425.004 504.562 425.733C505.347 426.553 505.568 427.412 505.223 428.31C505.692 428.235 506.162 428.27 506.632 428.414C507.107 428.562 507.548 428.849 507.956 429.275C509.188 430.56 509.134 431.866 507.794 433.192L503.867 436.955L502.907 435.953L506.774 432.248C507.193 431.846 507.413 431.451 507.436 431.063C507.462 430.67 507.258 430.249 506.826 429.798C506.469 429.426 506.062 429.224 505.603 429.193C505.147 429.159 504.712 429.302 504.299 429.622L500.41 433.349L499.445 432.341L503.285 428.661C504.137 427.845 504.163 427.019 503.364 426.185C502.734 425.528 502.023 425.347 501.232 425.641L496.954 429.742L495.993 428.74L501.853 423.124L502.761 424.072ZM512.083 433.798L511.46 434.448C512.377 434.393 513.185 434.73 513.884 435.46C514.669 436.279 514.89 437.138 514.545 438.036C515.014 437.961 515.484 437.996 515.954 438.14C516.429 438.288 516.87 438.576 517.278 439.002C518.51 440.287 518.456 441.593 517.116 442.919L513.189 446.682L512.229 445.68L516.096 441.974C516.515 441.573 516.735 441.178 516.758 440.789C516.784 440.397 516.58 439.975 516.148 439.524C515.791 439.152 515.384 438.951 514.925 438.92C514.469 438.885 514.034 439.028 513.621 439.348L509.733 443.075L508.767 442.068L512.607 438.388C513.459 437.571 513.485 436.746 512.686 435.912C512.056 435.255 511.345 435.073 510.554 435.368L506.276 439.468L505.315 438.466L511.175 432.85L512.083 433.798ZM516.865 450.734C516.104 449.939 515.744 449.044 515.787 448.047C515.833 447.047 516.292 446.129 517.166 445.291L517.35 445.115C517.932 444.558 518.555 444.171 519.221 443.956C519.894 443.74 520.549 443.708 521.186 443.859C521.83 444.011 522.375 444.32 522.822 444.785C523.552 445.547 523.868 446.38 523.771 447.283C523.674 448.187 523.158 449.086 522.223 449.983L521.806 450.382L518.002 446.413C517.438 446.981 517.131 447.597 517.082 448.261C517.039 448.925 517.257 449.506 517.735 450.004C518.074 450.358 518.433 450.588 518.813 450.695C519.192 450.803 519.59 450.834 520.004 450.79L520.114 451.858C518.889 452.091 517.806 451.716 516.865 450.734ZM521.999 445.574C521.611 445.17 521.138 444.973 520.579 444.982C520.023 444.988 519.449 445.213 518.856 445.656L521.669 448.591L521.745 448.519C522.226 448.002 522.489 447.488 522.531 446.976C522.578 446.46 522.4 445.993 521.999 445.574ZM527.048 449.411L526.342 450.15C527.334 450.058 528.177 450.373 528.869 451.095C530.056 452.333 529.956 453.627 528.569 454.977L524.697 458.688L523.736 457.686L527.614 453.97C528.033 453.562 528.252 453.165 528.271 452.78C528.293 452.398 528.112 452.007 527.728 451.606C527.416 451.281 527.056 451.079 526.648 451C526.239 450.92 525.828 450.947 525.415 451.08L521.24 455.082L520.279 454.08L526.139 448.464L527.048 449.411ZM534.726 454.583L533.307 455.943L534.356 457.037L533.581 457.779L532.533 456.685L528.899 460.168C528.664 460.392 528.534 460.611 528.508 460.822C528.486 461.031 528.588 461.252 528.812 461.487C528.923 461.602 529.097 461.74 529.334 461.901L528.522 462.68C528.197 462.485 527.915 462.264 527.676 462.014C527.247 461.567 527.059 461.099 527.112 460.612C527.165 460.125 527.44 459.643 527.939 459.166L531.572 455.683L530.55 454.616L531.324 453.874L532.347 454.941L533.766 453.581L534.726 454.583ZM534.446 465.75C534.717 465.49 534.828 465.187 534.779 464.839C534.737 464.492 534.526 464.011 534.146 463.399C533.77 462.789 533.514 462.262 533.379 461.817C533.247 461.376 533.216 460.983 533.287 460.637C533.361 460.296 533.543 459.987 533.832 459.71C534.312 459.25 534.912 459.063 535.632 459.149C536.355 459.238 537.019 459.599 537.625 460.231C538.262 460.895 538.606 461.597 538.657 462.338C538.712 463.082 538.472 463.71 537.938 464.222L536.973 463.215C537.247 462.952 537.371 462.608 537.345 462.183C537.322 461.761 537.141 461.374 536.802 461.02C536.452 460.655 536.099 460.446 535.743 460.392C535.387 460.339 535.081 460.435 534.825 460.681C534.583 460.913 534.492 461.183 534.553 461.492C534.613 461.801 534.827 462.258 535.192 462.864C535.561 463.473 535.817 464.007 535.959 464.466C536.102 464.926 536.134 465.335 536.055 465.694C535.984 466.053 535.791 466.383 535.477 466.684C534.954 467.186 534.332 467.38 533.613 467.266C532.898 467.148 532.22 466.755 531.58 466.087C531.13 465.618 530.815 465.123 530.635 464.603C530.455 464.082 530.415 463.578 530.513 463.088C530.619 462.599 530.845 462.188 531.192 461.856L532.152 462.858C531.834 463.197 531.695 463.587 531.735 464.026C531.782 464.466 532.003 464.892 532.397 465.303C532.761 465.682 533.127 465.913 533.497 465.995C533.874 466.077 534.19 465.996 534.446 465.75Z" fill="white"/>
<rect x="476.356" y="326.027" width="25.5574" height="25.9733" rx="12.7787" transform="rotate(46.2164 476.356 326.027)" fill="white"/>
<path d="M473.521 348.341L472.235 346.999L477.406 342.043L475.374 340.918L476.465 339.872L480.151 341.71L480.289 341.854L473.521 348.341Z" fill="#A5A6F6"/>
<g filter="url(#filter2_d)">
<path d="M11.2175 395.731L110.383 499.199L147.852 463.288C156.602 454.901 156.897 441.009 148.51 432.258L147.846 431.565L64.5309 344.635L11.2175 395.731Z" fill="#2097F6"/>
</g>
<path d="M35.9913 411.555L33.5622 409.02L26.5327 415.757L25.5413 414.723L32.5708 407.986L30.1469 405.457L31.0025 404.637L36.847 410.735L35.9913 411.555ZM32.8637 419.425L38.5638 416.58L39.5915 417.653L30.5695 421.78C29.2452 422.349 28.2025 422.237 27.4412 421.443L27.2758 421.238L26.988 420.797L27.8004 420.018L28.0382 420.309C28.3635 420.649 28.6847 420.847 29.0018 420.903C29.3224 420.963 29.7239 420.879 30.2062 420.653L31.0147 420.304L34.8059 412.66L35.8544 413.753L32.8637 419.425ZM42.2023 426.372C41.3106 427.227 40.3966 427.711 39.4604 427.826C38.5242 427.94 37.7222 427.649 37.0544 426.952C36.3727 426.241 36.062 425.465 36.1223 424.625L33.3007 427.329L32.3405 426.327L40.4531 418.552L41.3303 419.467L40.7271 420.139C41.6236 420.062 42.4196 420.387 43.1151 421.112C43.7899 421.816 44.0574 422.627 43.9177 423.543C43.7814 424.464 43.2403 425.377 42.2944 426.284L42.2023 426.372ZM41.3558 425.261C42.0165 424.628 42.4033 423.987 42.5161 423.339C42.6289 422.69 42.45 422.12 41.9794 421.629C41.3981 421.023 40.6931 420.826 39.8645 421.038L37.0646 423.722C36.8175 424.533 36.9897 425.248 37.5815 425.865C38.0417 426.345 38.5963 426.545 39.2453 426.463C39.9013 426.381 40.6049 425.981 41.3558 425.261ZM42.7846 432.931C42.0233 432.137 41.6639 431.241 41.7063 430.245C41.7523 429.245 42.2121 428.326 43.0858 427.489L43.27 427.312C43.8512 426.755 44.4749 426.369 45.1409 426.153C45.8139 425.938 46.469 425.905 47.1059 426.057C47.75 426.209 48.2952 426.517 48.7416 426.983C49.4717 427.745 49.7882 428.577 49.6912 429.481C49.5942 430.384 49.0782 431.284 48.1431 432.18L47.7261 432.58L43.9215 428.61C43.3577 429.178 43.051 429.794 43.0016 430.458C42.9592 431.122 43.1767 431.703 43.6543 432.202C43.9934 432.555 44.3528 432.786 44.7325 432.893C45.1122 433 45.5094 433.031 45.9242 432.987L46.0342 434.056C44.809 434.288 43.7258 433.913 42.7846 432.931ZM47.9184 427.772C47.5308 427.368 47.0575 427.17 46.4985 427.179C45.9431 427.185 45.3688 427.41 44.7758 427.854L47.589 430.789L47.6649 430.716C48.1462 430.2 48.4083 429.685 48.451 429.173C48.4973 428.658 48.3198 428.191 47.9184 427.772ZM52.141 439.539L57.8411 436.694L58.8688 437.766L49.8468 441.893C48.5225 442.463 47.4797 442.351 46.7184 441.556L46.553 441.351L46.2653 440.91L47.0776 440.132L47.3155 440.423C47.6408 440.763 47.962 440.96 48.2791 441.017C48.5997 441.076 49.0011 440.993 49.4834 440.766L50.292 440.417L54.0832 432.773L55.1317 433.867L52.141 439.539ZM56.5173 441.07C57.0914 440.519 57.7149 440.136 58.388 439.921C59.0645 439.709 59.7194 439.684 60.3526 439.846C60.9892 440.011 61.555 440.352 62.0498 440.869C62.8145 441.667 63.156 442.576 63.0742 443.596C62.9959 444.62 62.4982 445.572 61.5811 446.451L61.5107 446.518C60.9403 447.065 60.3221 447.446 59.6561 447.662C58.9971 447.878 58.3458 447.903 57.7021 447.737C57.0618 447.575 56.489 447.23 55.9838 446.703C55.2226 445.909 54.8811 445 54.9595 443.976C55.0413 442.955 55.5371 442.009 56.4469 441.137L56.5173 441.07ZM57.3636 442.191C56.7137 442.814 56.3356 443.464 56.2293 444.141C56.1264 444.821 56.3172 445.414 56.8016 445.919C57.2895 446.428 57.8756 446.643 58.56 446.562C59.2479 446.477 59.9512 446.091 60.6696 445.402C61.3123 444.786 61.6851 444.134 61.7882 443.447C61.8982 442.759 61.7111 442.163 61.2266 441.658C60.7526 441.163 60.1734 440.953 59.4892 441.027C58.805 441.1 58.0965 441.489 57.3636 442.191ZM63.8967 453.583C63.0645 453.632 62.2868 453.28 61.5636 452.525C60.9649 451.9 60.6887 451.251 60.7348 450.576C60.7881 449.902 61.1686 449.222 61.8764 448.537L65.689 444.883L66.6492 445.884L62.8637 449.513C61.9755 450.364 61.8775 451.15 62.5695 451.873C63.3031 452.638 64.0762 452.874 64.8889 452.58L69.151 448.495L70.1112 449.497L64.2515 455.113L63.338 454.16L63.8967 453.583ZM73.3905 454.718C73.2705 454.542 73.1257 454.366 72.9561 454.189C72.3263 453.532 71.6192 453.354 70.8346 453.656L66.6754 457.642L65.7152 456.64L71.5749 451.024L72.5092 451.999L71.8478 452.664C72.6862 452.491 73.3944 452.705 73.9722 453.308C74.1591 453.503 74.2757 453.676 74.322 453.825L73.3905 454.718ZM74.9162 464.82C75.2588 465.177 75.6664 465.386 76.1391 465.445C76.6118 465.505 77.0244 465.394 77.377 465.111L78.2854 466.059C77.9323 466.362 77.502 466.553 76.9946 466.631C76.4872 466.708 75.9719 466.655 75.4488 466.471C74.9292 466.29 74.4791 466.001 74.0984 465.604C73.3337 464.806 72.9901 463.916 73.0675 462.934C73.152 461.953 73.6564 461.019 74.5807 460.133L74.7486 459.973C75.319 459.426 75.9266 459.044 76.5714 458.828C77.2162 458.612 77.8482 458.581 78.4674 458.736C79.0901 458.894 79.6575 459.24 80.1696 459.775C80.7994 460.432 81.1251 461.165 81.1468 461.976C81.172 462.79 80.8843 463.512 80.2837 464.143L79.3754 463.196C79.7268 462.803 79.8989 462.361 79.8917 461.87C79.8915 461.378 79.7097 460.943 79.3464 460.564C78.8585 460.055 78.2955 459.836 77.6573 459.907C77.0262 459.978 76.3641 460.346 75.6709 461.011L75.4813 461.192C74.8062 461.84 74.4195 462.477 74.3213 463.104C74.2231 463.732 74.4214 464.304 74.9162 464.82ZM80.2479 465.83C80.822 465.28 81.4455 464.897 82.1186 464.681C82.7951 464.469 83.45 464.444 84.0832 464.606C84.7199 464.772 85.2856 465.113 85.7804 465.629C86.5452 466.427 86.8866 467.336 86.8048 468.356C86.7265 469.381 86.2288 470.332 85.3118 471.211L85.2414 471.278C84.6709 471.825 84.0527 472.206 83.3867 472.422C82.7278 472.638 82.0765 472.663 81.4327 472.497C80.7924 472.335 80.2197 471.991 79.7145 471.463C78.9532 470.669 78.6118 469.76 78.6901 468.736C78.7719 467.715 79.2677 466.769 80.1775 465.897L80.2479 465.83ZM81.0942 466.951C80.4443 467.574 80.0662 468.224 79.9599 468.901C79.857 469.581 80.0478 470.174 80.5322 470.68C81.0201 471.189 81.6063 471.403 82.2906 471.322C82.9786 471.237 83.6818 470.851 84.4003 470.162C85.0429 469.546 85.4158 468.895 85.5188 468.207C85.6289 467.52 85.4417 466.923 84.9573 466.418C84.4832 465.923 83.9041 465.713 83.2199 465.787C82.5357 465.861 81.8271 466.249 81.0942 466.951ZM90.3435 470.607L89.7196 471.257C90.6368 471.202 91.4449 471.539 92.1439 472.269C92.9294 473.088 93.1499 473.947 92.8054 474.845C93.2739 474.77 93.7436 474.805 94.2145 474.949C94.6888 475.097 95.1301 475.384 95.5384 475.81C96.7703 477.096 96.7161 478.401 95.3757 479.728L91.4494 483.491L90.4891 482.489L94.3559 478.783C94.7747 478.381 94.9953 477.986 95.0177 477.598C95.0437 477.206 94.8404 476.784 94.4079 476.333C94.0515 475.961 93.6437 475.759 93.1846 475.729C92.729 475.694 92.2945 475.837 91.881 476.157L87.9925 479.884L87.0271 478.877L90.8668 475.197C91.7189 474.38 91.7452 473.555 90.9459 472.721C90.3161 472.063 89.6055 471.882 88.8141 472.177L84.5357 476.277L83.5755 475.275L89.4352 469.659L90.3435 470.607ZM99.6655 480.333L99.0416 480.983C99.9588 480.928 100.767 481.266 101.466 481.995C102.251 482.815 102.472 483.673 102.127 484.572C102.596 484.497 103.066 484.531 103.536 484.676C104.011 484.824 104.452 485.111 104.86 485.537C106.092 486.822 106.038 488.128 104.698 489.454L100.771 493.217L99.8111 492.215L103.678 488.509C104.097 488.108 104.317 487.713 104.34 487.324C104.366 486.932 104.162 486.511 103.73 486.059C103.374 485.687 102.966 485.486 102.507 485.455C102.051 485.421 101.617 485.563 101.203 485.884L97.3145 489.61L96.3491 488.603L100.189 484.923C101.041 484.106 101.067 483.281 100.268 482.447C99.6381 481.79 98.9275 481.609 98.1361 481.903L93.8577 486.004L92.8975 485.002L98.7572 479.386L99.6655 480.333ZM104.447 497.269C103.686 496.475 103.326 495.579 103.369 494.583C103.415 493.583 103.874 492.664 104.748 491.827L104.932 491.65C105.514 491.093 106.137 490.707 106.803 490.491C107.476 490.275 108.131 490.243 108.768 490.395C109.412 490.546 109.957 490.855 110.404 491.321C111.134 492.083 111.451 492.915 111.354 493.819C111.257 494.722 110.74 495.622 109.805 496.518L109.388 496.918L105.584 492.948C105.02 493.516 104.713 494.132 104.664 494.796C104.621 495.46 104.839 496.041 105.317 496.539C105.656 496.893 106.015 497.124 106.395 497.231C106.774 497.338 107.172 497.369 107.586 497.325L107.696 498.394C106.471 498.626 105.388 498.251 104.447 497.269ZM109.581 492.11C109.193 491.705 108.72 491.508 108.161 491.517C107.605 491.523 107.031 491.748 106.438 492.191L109.251 495.127L109.327 495.054C109.809 494.537 110.071 494.023 110.113 493.511C110.16 492.996 109.982 492.528 109.581 492.11ZM114.63 495.947L113.924 496.685C114.916 496.593 115.759 496.908 116.451 497.63C117.638 498.868 117.538 500.162 116.151 501.512L112.279 505.224L111.318 504.222L115.196 500.505C115.615 500.097 115.834 499.7 115.853 499.315C115.875 498.933 115.694 498.542 115.31 498.142C114.998 497.817 114.638 497.614 114.23 497.535C113.821 497.456 113.41 497.482 112.997 497.615L108.822 501.617L107.861 500.615L113.721 494.999L114.63 495.947ZM122.308 501.118L120.889 502.478L121.938 503.572L121.163 504.314L120.115 503.22L116.481 506.703C116.246 506.928 116.116 507.146 116.09 507.358C116.068 507.566 116.17 507.787 116.394 508.022C116.505 508.138 116.679 508.276 116.916 508.436L116.104 509.215C115.779 509.021 115.497 508.799 115.259 508.55C114.829 508.102 114.641 507.635 114.694 507.148C114.747 506.661 115.022 506.178 115.521 505.701L119.155 502.218L118.132 501.151L118.906 500.409L119.929 501.476L121.348 500.116L122.308 501.118ZM122.029 512.285C122.299 512.026 122.41 511.722 122.361 511.374C122.319 511.027 122.108 510.547 121.728 509.934C121.352 509.325 121.096 508.797 120.961 508.352C120.829 507.911 120.798 507.518 120.869 507.173C120.944 506.831 121.125 506.522 121.414 506.245C121.894 505.785 122.494 505.598 123.214 505.684C123.937 505.774 124.601 506.134 125.207 506.766C125.844 507.43 126.188 508.133 126.239 508.873C126.294 509.617 126.054 510.245 125.52 510.757L124.555 509.75C124.829 509.487 124.953 509.143 124.927 508.718C124.904 508.296 124.723 507.909 124.384 507.555C124.034 507.19 123.681 506.981 123.325 506.928C122.969 506.874 122.663 506.97 122.407 507.216C122.165 507.448 122.074 507.718 122.135 508.027C122.195 508.336 122.409 508.793 122.774 509.399C123.143 510.008 123.399 510.542 123.541 511.002C123.684 511.461 123.716 511.87 123.637 512.229C123.566 512.588 123.373 512.919 123.059 513.22C122.536 513.721 121.914 513.915 121.195 513.801C120.48 513.683 119.802 513.29 119.162 512.622C118.712 512.153 118.397 511.658 118.217 511.138C118.037 510.618 117.997 510.113 118.095 509.623C118.201 509.134 118.427 508.723 118.774 508.391L119.734 509.393C119.416 509.733 119.277 510.122 119.317 510.562C119.364 511.001 119.585 511.427 119.979 511.839C120.343 512.218 120.709 512.448 121.079 512.53C121.456 512.613 121.772 512.531 122.029 512.285Z" fill="white"/>
<rect x="63.9377" y="372.562" width="25.5574" height="25.9733" rx="12.7787" transform="rotate(46.2164 63.9377 372.562)" fill="white"/>
<path d="M61.1028 394.876L59.817 393.534L64.9882 388.578L62.9566 387.453L64.0475 386.407L67.7328 388.246L67.8708 388.389L61.1028 394.876Z" fill="#2097F6"/>
<g filter="url(#filter3_d)">
<path d="M167.644 562.351L266.809 665.819L304.278 629.908C313.029 621.521 313.324 607.628 304.937 598.878L304.273 598.184L220.958 511.254L167.644 562.351Z" fill="#5452F6"/>
</g>
<g filter="url(#filter4_d)">
<path d="M78.5557 160.582L177.721 264.05L215.19 228.139C223.94 219.752 224.235 205.859 215.849 197.109L131.869 109.485L78.5557 160.582Z" fill="#65BF73"/>
</g>
<path d="M103.329 176.405L100.9 173.871L93.8708 180.608L92.8794 179.574L99.9089 172.837L97.485 170.307L98.3407 169.487L104.185 175.585L103.329 176.405ZM100.202 184.276L105.902 181.431L106.93 182.504L97.9077 186.631C96.5834 187.2 95.5406 187.088 94.7793 186.294L94.6139 186.088L94.3262 185.647L95.1385 184.869L95.3764 185.16C95.7016 185.5 96.0228 185.698 96.34 185.754C96.6606 185.814 97.062 185.73 97.5443 185.503L98.3528 185.155L102.144 177.51L103.193 178.604L100.202 184.276ZM109.54 191.223C108.649 192.077 107.735 192.562 106.799 192.677C105.862 192.791 105.06 192.5 104.392 191.803C103.711 191.092 103.4 190.316 103.46 189.476L100.639 192.18L99.6786 191.178L107.791 183.403L108.668 184.318L108.065 184.989C108.962 184.913 109.758 185.238 110.453 185.963C111.128 186.667 111.396 187.478 111.256 188.394C111.12 189.315 110.578 190.228 109.633 191.135L109.54 191.223ZM108.694 190.112C109.355 189.479 109.741 188.838 109.854 188.189C109.967 187.541 109.788 186.971 109.318 186.48C108.736 185.874 108.031 185.677 107.203 185.889L104.403 188.572C104.156 189.384 104.328 190.099 104.92 190.716C105.38 191.196 105.934 191.396 106.583 191.314C107.239 191.232 107.943 190.832 108.694 190.112ZM110.123 197.782C109.361 196.988 109.002 196.092 109.044 195.096C109.09 194.096 109.55 193.177 110.424 192.34L110.608 192.163C111.189 191.606 111.813 191.22 112.479 191.004C113.152 190.788 113.807 190.756 114.444 190.908C115.088 191.059 115.633 191.368 116.08 191.834C116.81 192.596 117.126 193.428 117.029 194.332C116.932 195.235 116.416 196.135 115.481 197.031L115.064 197.431L111.26 193.461C110.696 194.029 110.389 194.645 110.34 195.309C110.297 195.973 110.515 196.554 110.992 197.052C111.331 197.406 111.691 197.637 112.071 197.744C112.45 197.851 112.848 197.882 113.262 197.838L113.372 198.907C112.147 199.139 111.064 198.764 110.123 197.782ZM115.257 192.623C114.869 192.218 114.396 192.021 113.837 192.03C113.281 192.036 112.707 192.261 112.114 192.705L114.927 195.64L115.003 195.567C115.484 195.05 115.746 194.536 115.789 194.024C115.835 193.509 115.658 193.042 115.257 192.623ZM119.479 204.39L125.179 201.545L126.207 202.617L117.185 206.744C115.861 207.314 114.818 207.202 114.057 206.407L113.891 206.202L113.603 205.761L114.416 204.982L114.654 205.274C114.979 205.613 115.3 205.811 115.617 205.867C115.938 205.927 116.339 205.844 116.822 205.617L117.63 205.268L121.421 197.624L122.47 198.718L119.479 204.39ZM123.855 205.92C124.429 205.37 125.053 204.987 125.726 204.772C126.403 204.56 127.057 204.535 127.691 204.697C128.327 204.862 128.893 205.203 129.388 205.719C130.153 206.517 130.494 207.427 130.412 208.447C130.334 209.471 129.836 210.423 128.919 211.301L128.849 211.369C128.278 211.916 127.66 212.297 126.994 212.513C126.335 212.729 125.684 212.754 125.04 212.588C124.4 212.426 123.827 212.081 123.322 211.554C122.561 210.76 122.219 209.851 122.298 208.826C122.379 207.806 122.875 206.86 123.785 205.988L123.855 205.92ZM124.702 207.042C124.052 207.665 123.674 208.315 123.567 208.991C123.465 209.672 123.655 210.265 124.14 210.77C124.628 211.279 125.214 211.493 125.898 211.412C126.586 211.328 127.289 210.941 128.008 210.253C128.65 209.637 129.023 208.985 129.126 208.298C129.236 207.61 129.049 207.014 128.565 206.508C128.091 206.014 127.512 205.803 126.827 205.877C126.143 205.951 125.435 206.339 124.702 207.042ZM131.235 218.433C130.403 218.483 129.625 218.13 128.902 217.376C128.303 216.751 128.027 216.102 128.073 215.427C128.126 214.753 128.507 214.073 129.215 213.387L133.027 209.733L133.987 210.735L130.202 214.363C129.314 215.215 129.216 216.001 129.908 216.723C130.641 217.489 131.414 217.724 132.227 217.43L136.489 213.346L137.449 214.348L131.59 219.964L130.676 219.01L131.235 218.433ZM140.729 219.569C140.609 219.393 140.464 219.216 140.294 219.04C139.664 218.382 138.957 218.205 138.173 218.506L134.014 222.493L133.053 221.491L138.913 215.875L139.847 216.85L139.186 217.515C140.024 217.341 140.732 217.556 141.31 218.159C141.497 218.354 141.614 218.526 141.66 218.676L140.729 219.569ZM142.254 229.671C142.597 230.028 143.005 230.237 143.477 230.296C143.95 230.356 144.363 230.244 144.715 229.962L145.624 230.91C145.27 231.213 144.84 231.404 144.333 231.482C143.825 231.559 143.31 231.506 142.787 231.321C142.267 231.141 141.817 230.852 141.437 230.455C140.672 229.657 140.328 228.767 140.406 227.785C140.49 226.804 140.995 225.87 141.919 224.984L142.087 224.823C142.657 224.277 143.265 223.895 143.91 223.679C144.554 223.463 145.186 223.432 145.806 223.587C146.428 223.745 146.996 224.091 147.508 224.625C148.137 225.283 148.463 226.016 148.485 226.827C148.51 227.641 148.222 228.363 147.622 228.994L146.714 228.047C147.065 227.654 147.237 227.212 147.23 226.721C147.23 226.229 147.048 225.794 146.685 225.414C146.197 224.905 145.634 224.686 144.995 224.758C144.364 224.829 143.702 225.197 143.009 225.862L142.819 226.043C142.144 226.69 141.758 227.328 141.659 227.955C141.561 228.583 141.76 229.155 142.254 229.671ZM147.586 230.681C148.16 230.13 148.784 229.748 149.457 229.532C150.133 229.32 150.788 229.295 151.421 229.457C152.058 229.623 152.624 229.963 153.119 230.48C153.883 231.278 154.225 232.187 154.143 233.207C154.065 234.231 153.567 235.183 152.65 236.062L152.579 236.129C152.009 236.676 151.391 237.057 150.725 237.273C150.066 237.489 149.415 237.514 148.771 237.348C148.131 237.186 147.558 236.841 147.053 236.314C146.291 235.52 145.95 234.611 146.028 233.587C146.11 232.566 146.606 231.62 147.516 230.748L147.586 230.681ZM148.432 231.802C147.782 232.425 147.404 233.075 147.298 233.752C147.195 234.432 147.386 235.025 147.87 235.531C148.358 236.04 148.944 236.254 149.629 236.173C150.317 236.088 151.02 235.702 151.738 235.013C152.381 234.397 152.754 233.745 152.857 233.058C152.967 232.371 152.78 231.774 152.295 231.269C151.821 230.774 151.242 230.564 150.558 230.638C149.874 230.712 149.165 231.1 148.432 231.802ZM157.682 235.458L157.058 236.108C157.975 236.053 158.783 236.39 159.482 237.119C160.268 237.939 160.488 238.798 160.144 239.696C160.612 239.621 161.082 239.656 161.553 239.8C162.027 239.948 162.468 240.235 162.877 240.661C164.108 241.946 164.054 243.252 162.714 244.578L158.787 248.341L157.827 247.34L161.694 243.634C162.113 243.232 162.333 242.837 162.356 242.449C162.382 242.057 162.179 241.635 161.746 241.184C161.39 240.812 160.982 240.61 160.523 240.579C160.067 240.545 159.633 240.688 159.219 241.008L155.331 244.735L154.365 243.727L158.205 240.047C159.057 239.231 159.083 238.405 158.284 237.571C157.654 236.914 156.944 236.733 156.152 237.027L151.874 241.128L150.914 240.126L156.773 234.51L157.682 235.458ZM167.004 245.184L166.38 245.834C167.297 245.779 168.105 246.117 168.804 246.846C169.59 247.665 169.81 248.524 169.466 249.422C169.934 249.347 170.404 249.382 170.875 249.527C171.349 249.675 171.79 249.962 172.199 250.388C173.43 251.673 173.376 252.979 172.036 254.305L168.109 258.068L167.149 257.066L171.016 253.36C171.435 252.959 171.655 252.564 171.678 252.175C171.704 251.783 171.501 251.361 171.068 250.91C170.712 250.538 170.304 250.337 169.845 250.306C169.389 250.271 168.955 250.414 168.541 250.734L164.653 254.461L163.687 253.454L167.527 249.774C168.379 248.957 168.405 248.132 167.606 247.298C166.976 246.641 166.266 246.459 165.474 246.754L161.196 250.854L160.236 249.852L166.095 244.236L167.004 245.184ZM171.785 262.12C171.024 261.325 170.664 260.43 170.707 259.434C170.753 258.434 171.213 257.515 172.086 256.677L172.27 256.501C172.852 255.944 173.475 255.557 174.141 255.342C174.814 255.126 175.469 255.094 176.106 255.246C176.75 255.397 177.296 255.706 177.742 256.172C178.472 256.933 178.789 257.766 178.692 258.669C178.595 259.573 178.079 260.473 177.144 261.369L176.727 261.768L172.922 257.799C172.358 258.367 172.051 258.983 172.002 259.647C171.96 260.311 172.177 260.892 172.655 261.39C172.994 261.744 173.353 261.974 173.733 262.082C174.113 262.189 174.51 262.22 174.925 262.176L175.035 263.245C173.809 263.477 172.726 263.102 171.785 262.12ZM176.919 256.96C176.531 256.556 176.058 256.359 175.499 256.368C174.943 256.374 174.369 256.599 173.776 257.042L176.589 259.978L176.665 259.905C177.147 259.388 177.409 258.874 177.451 258.362C177.498 257.846 177.32 257.379 176.919 256.96ZM181.968 260.797L181.262 261.536C182.255 261.444 183.097 261.759 183.789 262.481C184.976 263.719 184.876 265.013 183.489 266.363L179.617 270.074L178.656 269.073L182.534 265.356C182.953 264.948 183.172 264.551 183.191 264.166C183.213 263.784 183.032 263.393 182.648 262.992C182.336 262.667 181.976 262.465 181.568 262.386C181.159 262.306 180.748 262.333 180.335 262.466L176.16 266.468L175.2 265.466L181.059 259.85L181.968 260.797ZM189.646 265.969L188.227 267.329L189.276 268.423L188.501 269.165L187.453 268.071L183.819 271.554C183.584 271.779 183.454 271.997 183.428 272.209C183.406 272.417 183.508 272.638 183.733 272.873C183.843 272.988 184.017 273.127 184.254 273.287L183.442 274.066C183.117 273.871 182.835 273.65 182.597 273.401C182.168 272.953 181.979 272.486 182.032 271.999C182.085 271.512 182.361 271.029 182.859 270.552L186.493 267.069L185.47 266.002L186.245 265.26L187.267 266.327L188.686 264.967L189.646 265.969ZM189.367 277.136C189.637 276.877 189.748 276.573 189.699 276.225C189.657 275.878 189.446 275.398 189.066 274.785C188.69 274.175 188.434 273.648 188.299 273.203C188.167 272.762 188.136 272.369 188.207 272.024C188.282 271.682 188.463 271.373 188.752 271.096C189.232 270.636 189.832 270.449 190.552 270.535C191.275 270.624 191.94 270.985 192.545 271.617C193.182 272.281 193.526 272.984 193.577 273.724C193.632 274.468 193.393 275.096 192.858 275.608L191.893 274.601C192.167 274.338 192.291 273.994 192.265 273.569C192.242 273.147 192.061 272.76 191.722 272.406C191.372 272.041 191.02 271.832 190.664 271.779C190.307 271.725 190.001 271.821 189.745 272.067C189.503 272.299 189.412 272.569 189.473 272.878C189.534 273.187 189.747 273.644 190.112 274.25C190.481 274.859 190.737 275.393 190.879 275.852C191.022 276.312 191.054 276.721 190.975 277.08C190.904 277.439 190.711 277.769 190.397 278.07C189.874 278.572 189.252 278.766 188.533 278.652C187.818 278.534 187.14 278.141 186.5 277.473C186.05 277.004 185.735 276.509 185.555 275.989C185.375 275.469 185.335 274.964 185.433 274.474C185.539 273.985 185.766 273.574 186.112 273.242L187.072 274.244C186.754 274.583 186.615 274.973 186.655 275.413C186.702 275.852 186.923 276.278 187.318 276.689C187.681 277.068 188.047 277.299 188.417 277.381C188.794 277.463 189.11 277.382 189.367 277.136Z" fill="white"/>
<rect x="131.276" y="137.413" width="25.5574" height="25.9733" rx="12.7787" transform="rotate(46.2164 131.276 137.413)" fill="white"/>
<path d="M128.441 159.727L127.155 158.385L132.326 153.429L130.295 152.304L131.386 151.258L135.071 153.096L135.209 153.24L128.441 159.727Z" fill="#65BF73"/>
<path d="M123.012 397.004V397.004C131.008 389.34 143.703 389.61 151.367 397.606L257.954 508.818C265.617 516.814 265.348 529.509 257.351 537.173V537.173" stroke="#2097F7" stroke-width="2.19467"/>
<circle cx="251.861" cy="405.761" r="6.03534" transform="rotate(46.2164 251.861 405.761)" stroke="#2097F7" stroke-width="2.19467"/>
<line x1="204.311" y1="452.094" x2="247.884" y2="410.333" stroke="#2097F7" stroke-width="2.19467"/>
<path d="M138.167 396.958L123.216 397.217L124.48 382.677" stroke="#2097F7" stroke-width="2.19467" stroke-linecap="round" stroke-linejoin="round"/>
<g filter="url(#filter5_d)">
<path d="M339.248 315.723C344.144 315.792 348.037 319.854 347.899 324.748L346.106 388.257C345.97 393.055 342.005 396.855 337.205 396.787L273.678 395.882C268.782 395.812 264.89 391.751 265.028 386.857L266.821 323.348C266.956 318.55 270.921 314.75 275.721 314.818L339.248 315.723Z" fill="#FFECEA"/>
<path d="M339.241 316.271C343.83 316.337 347.48 320.144 347.35 324.733L345.557 388.241C345.43 392.74 341.713 396.302 337.213 396.238L273.686 395.334C269.096 395.268 265.447 391.461 265.576 386.872L267.369 323.364C267.496 318.865 271.213 315.303 275.713 315.367L339.241 316.271Z" stroke="#FF5A43" stroke-width="1.09733"/>
</g>
<path d="M296.515 351.016C295.632 351.862 294.718 352.453 293.773 352.788C292.832 353.12 291.928 353.18 291.059 352.967C290.19 352.755 289.408 352.285 288.712 351.559C288.032 350.85 287.602 350.054 287.423 349.173C287.248 348.288 287.335 347.385 287.687 346.462C288.046 345.54 288.646 344.668 289.488 343.845L290.138 343.222C291.005 342.392 291.914 341.809 292.868 341.473C293.821 341.138 294.735 341.076 295.612 341.289C296.497 341.502 297.279 341.963 297.959 342.673C298.652 343.395 299.085 344.198 299.26 345.083C299.444 345.968 299.346 346.878 298.966 347.812C298.591 348.741 297.963 349.627 297.085 350.47L296.515 351.016ZM295.964 349.276C297.033 348.252 297.646 347.252 297.804 346.277C297.966 345.298 297.678 344.423 296.938 343.651C296.219 342.901 295.364 342.583 294.375 342.7C293.395 342.816 292.391 343.355 291.364 344.315L290.702 344.95C289.666 345.943 289.059 346.94 288.88 347.943C288.709 348.946 288.989 349.829 289.721 350.592C290.457 351.36 291.305 351.687 292.265 351.574C293.23 351.457 294.24 350.905 295.295 349.916L295.964 349.276ZM302.532 359.177C301.513 360.154 300.469 360.708 299.399 360.839C298.329 360.97 297.412 360.637 296.649 359.841C295.87 359.028 295.515 358.141 295.584 357.18L292.359 360.271L291.262 359.126L300.533 350.24L301.536 351.286L300.847 352.053C301.871 351.966 302.781 352.337 303.576 353.166C304.347 353.971 304.653 354.897 304.493 355.945C304.337 356.996 303.719 358.04 302.638 359.076L302.532 359.177ZM301.565 357.908C302.32 357.184 302.762 356.452 302.891 355.711C303.02 354.97 302.816 354.318 302.278 353.757C301.613 353.064 300.808 352.839 299.861 353.081L296.661 356.148C296.378 357.076 296.575 357.893 297.251 358.598C297.777 359.147 298.411 359.375 299.153 359.281C299.903 359.188 300.707 358.73 301.565 357.908ZM310.466 357.357L308.844 358.911L310.042 360.161L309.157 361.01L307.959 359.759L303.806 363.74C303.538 363.997 303.389 364.246 303.36 364.488C303.334 364.726 303.45 364.979 303.707 365.247C303.834 365.379 304.033 365.537 304.303 365.721L303.375 366.611C303.004 366.388 302.682 366.135 302.409 365.85C301.919 365.339 301.704 364.805 301.764 364.248C301.824 363.691 302.139 363.14 302.709 362.595L306.862 358.614L305.693 357.395L306.578 356.547L307.747 357.766L309.368 356.212L310.466 357.357ZM305.825 369.167L304.728 368.022L311.424 361.603L312.522 362.748L305.825 369.167ZM313.112 359.808C313.297 359.63 313.508 359.536 313.742 359.524C313.981 359.517 314.207 359.625 314.421 359.848C314.634 360.071 314.732 360.301 314.715 360.539C314.698 360.778 314.596 360.986 314.411 361.164C314.225 361.342 314.015 361.432 313.781 361.435C313.546 361.438 313.322 361.328 313.108 361.106C312.895 360.883 312.795 360.654 312.808 360.42C312.825 360.19 312.926 359.986 313.112 359.808ZM310.706 367.433C311.362 366.804 312.075 366.367 312.844 366.12C313.617 365.878 314.366 365.85 315.09 366.035C315.817 366.224 316.464 366.614 317.029 367.204C317.903 368.116 318.293 369.155 318.2 370.321C318.11 371.491 317.542 372.579 316.494 373.583L316.413 373.66C315.761 374.285 315.055 374.721 314.294 374.967C313.54 375.214 312.796 375.243 312.06 375.053C311.329 374.868 310.674 374.474 310.097 373.872C309.227 372.964 308.836 371.925 308.926 370.755C309.019 369.588 309.586 368.507 310.626 367.51L310.706 367.433ZM311.674 368.715C310.931 369.427 310.499 370.169 310.377 370.943C310.26 371.721 310.478 372.398 311.031 372.976C311.589 373.558 312.259 373.802 313.041 373.71C313.827 373.613 314.631 373.172 315.452 372.385C316.186 371.681 316.612 370.936 316.73 370.15C316.856 369.365 316.642 368.683 316.088 368.105C315.547 367.54 314.885 367.3 314.103 367.384C313.321 367.469 312.511 367.912 311.674 368.715ZM286.09 365.519L285.284 366.363C286.418 366.258 287.38 366.618 288.171 367.443C289.528 368.859 289.413 370.338 287.829 371.88L283.403 376.122L282.306 374.977L286.737 370.729C287.216 370.263 287.466 369.809 287.488 369.369C287.513 368.933 287.306 368.486 286.867 368.028C286.512 367.657 286.1 367.426 285.633 367.335C285.166 367.244 284.697 367.274 284.224 367.426L279.453 372L278.355 370.855L285.052 364.436L286.09 365.519ZM290.572 380.045C290.881 379.749 291.008 379.402 290.951 379.004C290.903 378.607 290.662 378.058 290.228 377.358C289.799 376.662 289.506 376.059 289.351 375.551C289.2 375.046 289.165 374.597 289.247 374.202C289.332 373.812 289.539 373.459 289.869 373.142C290.418 372.616 291.104 372.403 291.926 372.501C292.753 372.603 293.512 373.016 294.204 373.738C294.932 374.497 295.325 375.3 295.384 376.146C295.447 376.996 295.173 377.714 294.562 378.299L293.459 377.148C293.772 376.847 293.914 376.454 293.884 375.968C293.858 375.487 293.651 375.044 293.263 374.639C292.864 374.223 292.461 373.984 292.054 373.923C291.647 373.861 291.297 373.971 291.004 374.252C290.727 374.517 290.624 374.826 290.693 375.179C290.762 375.532 291.006 376.055 291.424 376.747C291.846 377.443 292.138 378.053 292.3 378.578C292.463 379.103 292.5 379.571 292.41 379.981C292.329 380.392 292.108 380.769 291.749 381.113C291.151 381.687 290.441 381.908 289.619 381.777C288.802 381.643 288.027 381.194 287.295 380.431C286.781 379.894 286.421 379.329 286.216 378.734C286.01 378.14 285.964 377.563 286.077 377.003C286.198 376.444 286.456 375.974 286.852 375.595L287.95 376.74C287.586 377.128 287.427 377.573 287.473 378.076C287.527 378.578 287.779 379.064 288.23 379.535C288.645 379.968 289.064 380.232 289.486 380.325C289.917 380.419 290.279 380.326 290.572 380.045Z" fill="#FF5A43"/>
<path d="M299.647 567.281L340.262 528.355C357.764 511.581 385.549 512.171 402.323 529.673L436.21 565.03" stroke="#65BF73" stroke-width="2.19467" stroke-linecap="round" stroke-linejoin="round" stroke-dasharray="5.49 8.78"/>
<path d="M553.275 444.021L583.206 475.25C599.98 492.752 599.39 520.537 581.889 537.311L536.564 580.75" stroke="#5452F6" stroke-width="2.19467" stroke-linecap="round" stroke-linejoin="round"/>
<circle r="6.03534" transform="matrix(-0.721959 0.691936 0.691936 0.721959 550.254 440.076)" fill="#5452F6"/>
<path d="M200.686 143.857V143.857C217.891 127.367 245.206 127.947 261.696 145.153L293.194 178.018" stroke="#5452F6" stroke-width="2.19467" stroke-linecap="round" stroke-linejoin="round"/>
<path d="M293.471 179.515L281.665 178.689C280.716 178.622 280.295 177.461 280.983 176.802L292.148 166.101C292.825 165.452 293.951 165.896 294.003 166.832L294.644 178.36C294.68 179.019 294.13 179.561 293.471 179.515Z" fill="#5452F6"/>
<circle r="6.03534" transform="matrix(0.691936 0.721959 0.721959 -0.691936 196.741 146.878)" fill="#5452F6"/>
<g clip-path="url(#clip0)">
<line y1="-1.09733" x2="129.547" y2="-1.09733" transform="matrix(-0.721959 0.691936 0.691936 0.721959 46.1648 463.949)" stroke="#2097F7" stroke-width="2.19467"/>
<circle r="6.03534" transform="matrix(-0.721959 0.691936 0.691936 0.721959 47.2742 457.97)" fill="#2097F6"/>
</g>
<g clip-path="url(#clip1)">
<rect x="-13.9924" y="462.501" width="108.636" height="41.6987" rx="8.23001" transform="rotate(46.2164 -13.9924 462.501)" fill="#E7F4FF"/>
<path d="M9.17511 510.226L6.39898 507.329L-1.63473 515.029L-2.76773 513.847L5.26598 506.147L2.49577 503.257L3.47368 502.32L10.153 509.289L9.17511 510.226ZM5.53696 522.512C5.60572 522.319 5.7895 522.04 6.08831 521.675C5.02525 521.672 4.13978 521.302 3.43191 520.563C2.79917 519.903 2.46482 519.182 2.42885 518.402C2.40096 517.621 2.67379 516.956 3.24733 516.406C3.94466 515.738 4.73829 515.484 5.62822 515.644C6.52622 515.805 7.43594 516.366 8.35736 517.327L9.42511 518.441L9.9512 517.937C10.3514 517.553 10.5545 517.129 10.5603 516.664C10.5703 516.196 10.3518 515.728 9.90492 515.262C9.51341 514.853 9.08203 514.61 8.61076 514.531C8.13949 514.452 7.75737 514.553 7.46441 514.834L6.36108 513.683C6.6953 513.363 7.12985 513.172 7.66473 513.11C8.20769 513.049 8.76372 513.134 9.33282 513.364C9.90588 513.598 10.4257 513.959 10.8924 514.446C11.6319 515.218 12.0173 516.008 12.0486 516.817C12.0841 517.622 11.7714 518.357 11.1105 519.022L8.02823 521.977C7.41342 522.566 6.99961 523.113 6.78678 523.618L6.68775 523.713L5.53696 522.512ZM4.58855 519.775C4.9326 520.134 5.35169 520.386 5.84583 520.53C6.33997 520.673 6.80479 520.675 7.24029 520.535L8.61431 519.218L7.75418 518.321C6.40962 516.918 5.32677 516.61 4.50566 517.397C4.14668 517.741 3.98078 518.129 4.00797 518.562C4.03515 518.996 4.22868 519.4 4.58855 519.775ZM11.3257 521.737C12.3696 520.737 13.4303 520.183 14.5078 520.077C15.5895 519.966 16.5119 520.309 17.2751 521.106C18.0581 521.923 18.3803 522.837 18.2416 523.849L19.0377 523.193L20.0402 524.239L13.5043 530.503C12.6378 531.333 11.7077 531.73 10.7141 531.692C9.72449 531.659 8.81444 531.21 7.98397 530.343C7.52128 529.86 7.17163 529.289 6.93502 528.629C6.69842 527.969 6.64294 527.346 6.7686 526.758L8.02508 526.694C7.88912 527.766 8.16124 528.657 8.84144 529.367C9.37531 529.924 9.94734 530.207 10.5575 530.216C11.1717 530.229 11.7634 529.962 12.3329 529.417L12.9085 528.865C11.9414 528.913 11.0782 528.541 10.3189 527.749C9.56749 526.965 9.27413 526.027 9.4388 524.935C9.60742 523.847 10.2364 522.781 11.3257 521.737ZM12.2991 523.013C11.544 523.737 11.0981 524.461 10.9614 525.186C10.8289 525.906 11.0296 526.545 11.5635 527.102C12.2555 527.824 13.0917 528.04 14.0721 527.75L17.1296 524.82C17.433 523.856 17.2486 523.023 16.5763 522.322C16.0424 521.765 15.4086 521.537 14.6748 521.639C13.941 521.74 13.1491 522.198 12.2991 523.013Z" fill="#2097F6"/>
<rect x="-13.9924" y="462.501" width="108.636" height="41.6987" rx="8.23001" transform="rotate(46.2164 -13.9924 462.501)" stroke="#2097F6" stroke-width="1.09733"/>
</g>
<line x1="212.26" y1="262.242" x2="262.03" y2="314.172" stroke="#FF5A43" stroke-width="2.19467"/>
<path d="M266.257 294.922L266.703 310.453L251.6 308.968" stroke="#FF5A43" stroke-width="2.19467" stroke-linecap="round" stroke-linejoin="round"/>
<circle cx="208.447" cy="259.056" r="6.03534" transform="rotate(46.2164 208.447 259.056)" stroke="#FF5A43" stroke-width="2.19467"/>
<path d="M359.788 412.711L376.572 430.224C393.346 447.725 421.131 448.315 438.633 431.542L456.522 414.396" stroke="#2097F7" stroke-width="2.19467" stroke-linecap="round" stroke-linejoin="round"/>
<path d="M456.863 412.912L445.032 413.236C444.081 413.263 443.612 414.405 444.27 415.093L454.971 426.258C455.62 426.935 456.764 426.539 456.856 425.606L457.985 414.116C458.05 413.459 457.523 412.894 456.863 412.912Z" fill="#2097F6"/>
<circle cx="355.975" cy="409.526" r="6.03534" transform="rotate(-43.7836 355.975 409.526)" fill="#2097F6"/>
<g filter="url(#filter6_d)">
<g clip-path="url(#clip2)">
<path d="M-50.6004 231.789C-47.1001 228.434 -41.543 228.552 -38.1883 232.052L30.6034 303.829C33.9581 307.329 33.8401 312.886 30.3398 316.241L17.6642 328.389L-63.2761 243.937L-50.6004 231.789Z" fill="#EEEEFF"/>
</g>
<path d="M-50.2208 232.185C-46.9392 229.04 -41.7295 229.15 -38.5844 232.432L30.2073 304.208C33.3524 307.49 33.2417 312.7 29.9602 315.845L17.6806 327.614L-62.5003 243.954L-50.2208 232.185Z" stroke="#5452F6" stroke-width="1.09733"/>
</g>
<g filter="url(#filter7_d)">
<path d="M-48.3628 229.644L32.5775 314.096L-42.7932 386.333C-46.2934 389.687 -51.8505 389.569 -55.2053 386.069L-123.997 314.293C-127.352 310.792 -127.234 305.235 -123.733 301.88L-48.3628 229.644Z" fill="white"/>
<path d="M-48.3793 230.42L31.8017 314.08L-43.1728 385.937C-46.4543 389.082 -51.6641 388.971 -54.8092 385.689L-123.601 313.913C-126.746 310.631 -126.635 305.422 -123.354 302.277L-48.3793 230.42Z" stroke="#5452F6" stroke-width="1.09733"/>
</g>
<path d="M105.986 228.219L85.8118 247.555C77.1509 255.855 63.4008 255.563 55.1001 246.903V246.903C46.7994 238.242 33.0493 237.95 24.3884 246.25L6.66978 263.232" stroke="#FF5A43" stroke-width="2.19467"/>
<path d="M8.11865 248.885L7.22461 263.811L21.8053 263.165" stroke="#FF5A43" stroke-width="2.19467" stroke-linecap="round" stroke-linejoin="round"/>
<circle r="6.03534" transform="matrix(-0.721959 0.691936 0.691936 0.721959 110.723 224.439)" fill="#FF5A43"/>
<line x1="374.584" y1="259.037" x2="436.118" y2="323.24" stroke="#2097F7" stroke-width="2.19467" stroke-dasharray="5.49 8.78"/>
<path d="M441.067 303.298L441.513 318.83L426.41 317.345" stroke="#2097F7" stroke-width="2.19467" stroke-linecap="round" stroke-linejoin="round"/>
<circle cx="370.772" cy="255.851" r="6.03534" transform="rotate(46.2164 370.772 255.851)" stroke="#2097F7" stroke-width="2.19467"/>
<g filter="url(#filter8_d)">
<g clip-path="url(#clip3)">
<rect x="316.658" y="170.592" width="79.5048" height="31.7405" rx="15.8703" transform="rotate(46.2164 316.658 170.592)" fill="#E7F4FF"/>
<path d="M330.768 213.286L334.199 216.866L333.105 217.914L328.361 212.964L336.246 205.407L337.559 206.777L330.768 213.286ZM337.345 222.339C337.402 222.174 337.536 221.948 337.747 221.663C336.909 221.663 336.199 221.359 335.618 220.753C335.054 220.164 334.761 219.523 334.741 218.83C334.72 218.136 334.957 217.552 335.452 217.078C336.076 216.479 336.776 216.252 337.551 216.396C338.333 216.54 339.138 217.043 339.965 217.906L340.738 218.713L341.123 218.344C341.426 218.054 341.587 217.737 341.605 217.394C341.626 217.048 341.471 216.702 341.139 216.355C340.851 216.056 340.54 215.883 340.205 215.837C339.874 215.787 339.593 215.873 339.361 216.095L338.1 214.779C338.422 214.471 338.823 214.29 339.305 214.237C339.791 214.18 340.288 214.257 340.797 214.47C341.308 214.686 341.781 215.019 342.213 215.471C342.871 216.157 343.222 216.87 343.266 217.61C343.314 218.347 343.031 219.02 342.417 219.629L339.774 222.162C339.247 222.667 338.897 223.145 338.725 223.594L338.633 223.682L337.345 222.339ZM336.907 219.984C337.157 220.244 337.453 220.428 337.798 220.534C338.145 220.644 338.481 220.655 338.805 220.566L339.91 219.507L339.23 218.798C338.763 218.31 338.327 218.025 337.922 217.942C337.517 217.859 337.159 217.967 336.848 218.264C336.596 218.506 336.473 218.783 336.481 219.095C336.495 219.406 336.637 219.703 336.907 219.984ZM347.539 227.229C346.63 228.101 345.71 228.591 344.781 228.699C343.856 228.81 343.052 228.51 342.37 227.799C341.713 227.113 341.448 226.341 341.576 225.485L340.88 226.027L339.738 224.835L348.057 216.863L349.318 218.179L346.296 221.075C347.107 221.025 347.821 221.321 348.436 221.964C349.122 222.679 349.394 223.495 349.255 224.411C349.115 225.328 348.568 226.243 347.615 227.157L347.539 227.229ZM346.392 225.804C347.027 225.195 347.397 224.627 347.5 224.098C347.603 223.57 347.45 223.093 347.042 222.667C346.495 222.096 345.862 221.934 345.142 222.181L342.727 224.496C342.443 225.218 342.576 225.867 343.126 226.441C343.521 226.852 343.979 227.023 344.5 226.953C345.021 226.882 345.596 226.553 346.224 225.965L346.392 225.804ZM348.096 233.772C347.296 232.938 346.909 232.01 346.934 230.989C346.967 229.967 347.42 229.038 348.293 228.2L348.456 228.045C349.041 227.484 349.67 227.096 350.343 226.88C351.023 226.665 351.687 226.638 352.334 226.801C352.981 226.963 353.546 227.295 354.027 227.797C354.791 228.595 355.127 229.454 355.033 230.375C354.943 231.3 354.432 232.209 353.5 233.102L352.969 233.61L349.3 229.781C348.854 230.285 348.625 230.812 348.614 231.364C348.605 231.919 348.807 232.411 349.219 232.841C349.797 233.444 350.511 233.701 351.362 233.613L351.365 234.972C350.79 235.073 350.216 235.02 349.644 234.813C349.079 234.606 348.563 234.259 348.096 233.772ZM352.965 228.804C352.619 228.442 352.213 228.271 351.745 228.29C351.282 228.311 350.795 228.508 350.284 228.879L352.688 231.387L352.785 231.293C353.198 230.842 353.418 230.407 353.444 229.986C353.474 229.562 353.315 229.168 352.965 228.804ZM352.782 238.445L351.521 237.129L359.839 229.156L361.1 230.472L352.782 238.445Z" fill="#FF5A43"/>
</g>
<rect x="316.642" y="171.367" width="78.4074" height="30.6432" rx="15.3216" transform="rotate(46.2164 316.642 171.367)" stroke="#2097F6" stroke-width="1.09733"/>
</g>
</g>
<defs>
<filter id="filter0_d" x="-198.493" y="102.123" width="827.436" height="805.484" filterUnits="userSpaceOnUse" color-interpolation-filters="sRGB">
<feFlood flood-opacity="0" result="BackgroundImageFix"/>
<feColorMatrix in="SourceAlpha" type="matrix" values="0 0 0 0 0 0 0 0 0 0 0 0 0 0 0 0 0 0 127 0"/>
<feOffset dy="4"/>
<feGaussianBlur stdDeviation="2"/>
<feColorMatrix type="matrix" values="0 0 0 0 0 0 0 0 0 0 0 0 0 0 0 0 0 0 0.25 0"/>
<feBlend mode="normal" in2="BackgroundImageFix" result="effect1_dropShadow"/>
<feBlend mode="normal" in="SourceGraphic" in2="effect1_dropShadow" result="shape"/>
</filter>
<filter id="filter1_d" x="423.635" y="298.099" width="147.784" height="158.954" filterUnits="userSpaceOnUse" color-interpolation-filters="sRGB">
<feFlood flood-opacity="0" result="BackgroundImageFix"/>
<feColorMatrix in="SourceAlpha" type="matrix" values="0 0 0 0 0 0 0 0 0 0 0 0 0 0 0 0 0 0 127 0"/>
<feOffset dx="4.38934" dy="4.38934"/>
<feColorMatrix type="matrix" values="0 0 0 0 0.9875 0 0 0 0 0.738327 0 0 0 0 0.703594 0 0 0 1 0"/>
<feBlend mode="normal" in2="BackgroundImageFix" result="effect1_dropShadow"/>
<feBlend mode="normal" in="SourceGraphic" in2="effect1_dropShadow" result="shape"/>
</filter>
<filter id="filter2_d" x="11.2175" y="344.635" width="147.784" height="158.954" filterUnits="userSpaceOnUse" color-interpolation-filters="sRGB">
<feFlood flood-opacity="0" result="BackgroundImageFix"/>
<feColorMatrix in="SourceAlpha" type="matrix" values="0 0 0 0 0 0 0 0 0 0 0 0 0 0 0 0 0 0 127 0"/>
<feOffset dx="4.38934" dy="4.38934"/>
<feColorMatrix type="matrix" values="0 0 0 0 0.513733 0 0 0 0 0.767915 0 0 0 0 0.970833 0 0 0 1 0"/>
<feBlend mode="normal" in2="BackgroundImageFix" result="effect1_dropShadow"/>
<feBlend mode="normal" in="SourceGraphic" in2="effect1_dropShadow" result="shape"/>
</filter>
<filter id="filter3_d" x="167.644" y="511.255" width="147.784" height="158.954" filterUnits="userSpaceOnUse" color-interpolation-filters="sRGB">
<feFlood flood-opacity="0" result="BackgroundImageFix"/>
<feColorMatrix in="SourceAlpha" type="matrix" values="0 0 0 0 0 0 0 0 0 0 0 0 0 0 0 0 0 0 127 0"/>
<feOffset dx="4.38934" dy="4.38934"/>
<feColorMatrix type="matrix" values="0 0 0 0 0.674908 0 0 0 0 0.662083 0 0 0 0 0.945833 0 0 0 1 0"/>
<feBlend mode="normal" in2="BackgroundImageFix" result="effect1_dropShadow"/>
<feBlend mode="normal" in="SourceGraphic" in2="effect1_dropShadow" result="shape"/>
</filter>
<filter id="filter4_d" x="78.5557" y="109.485" width="147.784" height="158.954" filterUnits="userSpaceOnUse" color-interpolation-filters="sRGB">
<feFlood flood-opacity="0" result="BackgroundImageFix"/>
<feColorMatrix in="SourceAlpha" type="matrix" values="0 0 0 0 0 0 0 0 0 0 0 0 0 0 0 0 0 0 127 0"/>
<feOffset dx="4.38934" dy="4.38934"/>
<feColorMatrix type="matrix" values="0 0 0 0 0.578021 0 0 0 0 0.775 0 0 0 0 0.608662 0 0 0 1 0"/>
<feBlend mode="normal" in2="BackgroundImageFix" result="effect1_dropShadow"/>
<feBlend mode="normal" in="SourceGraphic" in2="effect1_dropShadow" result="shape"/>
</filter>
<filter id="filter5_d" x="265.024" y="314.817" width="87.2671" height="86.3597" filterUnits="userSpaceOnUse" color-interpolation-filters="sRGB">
<feFlood flood-opacity="0" result="BackgroundImageFix"/>
<feColorMatrix in="SourceAlpha" type="matrix" values="0 0 0 0 0 0 0 0 0 0 0 0 0 0 0 0 0 0 127 0"/>
<feOffset dx="4.38934" dy="4.38934"/>
<feColorMatrix type="matrix" values="0 0 0 0 0.9875 0 0 0 0 0.738327 0 0 0 0 0.703594 0 0 0 1 0"/>
<feBlend mode="normal" in2="BackgroundImageFix" result="effect1_dropShadow"/>
<feBlend mode="normal" in="SourceGraphic" in2="effect1_dropShadow" result="shape"/>
</filter>
<filter id="filter6_d" x="-63.2761" y="225.714" width="104.343" height="107.064" filterUnits="userSpaceOnUse" color-interpolation-filters="sRGB">
<feFlood flood-opacity="0" result="BackgroundImageFix"/>
<feColorMatrix in="SourceAlpha" type="matrix" values="0 0 0 0 0 0 0 0 0 0 0 0 0 0 0 0 0 0 127 0"/>
<feOffset dx="4.38934" dy="4.38934"/>
<feColorMatrix type="matrix" values="0 0 0 0 0.674908 0 0 0 0 0.662083 0 0 0 0 0.945833 0 0 0 1 0"/>
<feBlend mode="normal" in2="BackgroundImageFix" result="effect1_dropShadow"/>
<feBlend mode="normal" in="SourceGraphic" in2="effect1_dropShadow" result="shape"/>
</filter>
<filter id="filter7_d" x="-130.071" y="229.644" width="167.038" height="167.152" filterUnits="userSpaceOnUse" color-interpolation-filters="sRGB">
<feFlood flood-opacity="0" result="BackgroundImageFix"/>
<feColorMatrix in="SourceAlpha" type="matrix" values="0 0 0 0 0 0 0 0 0 0 0 0 0 0 0 0 0 0 127 0"/>
<feOffset dx="4.38934" dy="4.38934"/>
<feColorMatrix type="matrix" values="0 0 0 0 0.674908 0 0 0 0 0.662083 0 0 0 0 0.945833 0 0 0 1 0"/>
<feBlend mode="normal" in2="BackgroundImageFix" result="effect1_dropShadow"/>
<feBlend mode="normal" in="SourceGraphic" in2="effect1_dropShadow" result="shape"/>
</filter>
<filter id="filter8_d" x="293.743" y="170.592" width="82.3169" height="83.7509" filterUnits="userSpaceOnUse" color-interpolation-filters="sRGB">
<feFlood flood-opacity="0" result="BackgroundImageFix"/>
<feColorMatrix in="SourceAlpha" type="matrix" values="0 0 0 0 0 0 0 0 0 0 0 0 0 0 0 0 0 0 127 0"/>
<feOffset dx="4.38934" dy="4.38934"/>
<feColorMatrix type="matrix" values="0 0 0 0 0.9875 0 0 0 0 0.738327 0 0 0 0 0.703594 0 0 0 1 0"/>
<feBlend mode="normal" in2="BackgroundImageFix" result="effect1_dropShadow"/>
<feBlend mode="normal" in="SourceGraphic" in2="effect1_dropShadow" result="shape"/>
</filter>
<clipPath id="clip0">
<rect width="15.4936" height="142.192" fill="white" transform="translate(45.3553 447.245) rotate(46.2164)"/>
</clipPath>
<clipPath id="clip1">
<rect width="109.733" height="42.796" fill="white" transform="translate(-13.976 461.725) rotate(46.2164)"/>
</clipPath>
<clipPath id="clip2">
<path d="M-50.6004 231.789C-47.1001 228.434 -41.543 228.552 -38.1883 232.052L30.6034 303.829C33.9581 307.329 33.8401 312.886 30.3398 316.241L17.6642 328.389L-63.2761 243.937L-50.6004 231.789Z" fill="white"/>
</clipPath>
<clipPath id="clip3">
<rect x="316.658" y="170.592" width="79.5048" height="31.7405" rx="15.8703" transform="rotate(46.2164 316.658 170.592)" fill="white"/>
</clipPath>
</defs>
</svg>
